<svg width="20" height="20" viewBox="0 0 20 20" fill="none" xmlns="http://www.w3.org/2000/svg">
<g clip-path="url(#clip0_59_194)">
<path d="M14.5837 5.41669H14.592M5.83366 1.66669H14.167C16.4682 1.66669 18.3337 3.53217 18.3337 5.83335V14.1667C18.3337 16.4679 16.4682 18.3334 14.167 18.3334H5.83366C3.53247 18.3334 1.66699 16.4679 1.66699 14.1667V5.83335C1.66699 3.53217 3.53247 1.66669 5.83366 1.66669ZM13.3337 9.47502C13.4365 10.1686 13.318 10.8769 12.9951 11.4992C12.6722 12.1215 12.1613 12.6262 11.535 12.9414C10.9087 13.2566 10.199 13.3664 9.50681 13.255C8.8146 13.1436 8.17513 12.8168 7.67936 12.321C7.18359 11.8252 6.85677 11.1857 6.74538 10.4935C6.63399 9.80131 6.74371 9.0916 7.05893 8.46533C7.37415 7.83906 7.87881 7.32814 8.50115 7.00522C9.12348 6.68231 9.83179 6.56384 10.5253 6.66669C11.2328 6.77159 11.8877 7.10124 12.3934 7.60694C12.8991 8.11264 13.2288 8.76758 13.3337 9.47502Z" stroke="#661126" stroke-width="2" stroke-linecap="round" stroke-linejoin="round"/>
</g>
<defs>
<clipPath id="clip0_59_194">
<rect width="20" height="20" fill="white"/>
</clipPath>
</defs>
</svg>
