<svg width="20" height="20" viewBox="0 0 20 20" fill="none" xmlns="http://www.w3.org/2000/svg">
<path d="M17.334 7.65558L11.3779 11.4495C11.3666 11.4567 11.3554 11.4643 11.3438 11.471C10.9369 11.7073 10.4744 11.8314 10.0039 11.8314C9.53368 11.8313 9.0717 11.7071 8.66504 11.471C8.65336 11.4642 8.64128 11.4568 8.62988 11.4495L2.66699 7.6546V15.0003C2.66717 15.3683 2.9659 15.6663 3.33398 15.6663H16.667C17.0351 15.6663 17.3338 15.3683 17.334 15.0003V7.65558ZM3.33398 4.33331C2.96579 4.33331 2.66699 4.63212 2.66699 5.00031V5.28351L9.68164 9.74738C9.78031 9.80197 9.89098 9.83133 10.0039 9.83136C10.1165 9.83136 10.2267 9.80164 10.3252 9.74738L17.334 5.28351V5.00031C17.334 4.63211 17.0352 4.33331 16.667 4.33331H3.33398ZM19.334 15.0003C19.3338 16.4729 18.1396 17.6663 16.667 17.6663H3.33398C1.86133 17.6663 0.667168 16.4729 0.666992 15.0003V5.00031C0.666992 3.52755 1.86122 2.33331 3.33398 2.33331H16.667C18.1398 2.33331 19.334 3.52755 19.334 5.00031V15.0003Z" fill="#F0DBBE"/>
</svg>
