<svg width="512" height="512" viewBox="0 0 512 512" fill="none" xmlns="http://www.w3.org/2000/svg">
<g clip-path="url(#clip0_110_6)">
<rect width="512" height="512" rx="64" fill="#661126"/>
<path fill-rule="evenodd" clip-rule="evenodd" d="M339.867 293.043C349.891 285.038 358.073 273.538 363.283 270.022C368.492 266.507 387.322 304.536 340.189 359.786C293.056 415.037 195.741 468.423 148.143 395.549C87.5027 302.716 189.661 105.341 295.355 82.3954C335.498 73.6791 377.862 88.3289 382.404 133.275C389.682 205.214 329.21 273.931 259.521 290.597C236.89 296.009 216.063 318.409 237.253 328.024V328.024C275.704 345.509 306.821 319.432 339.867 293.043ZM230.278 245.552C230.278 245.572 230.294 245.588 230.314 245.588C262.535 245.668 308.298 211.184 312.521 179.219C313.447 172.415 313.835 163.918 310.718 157.475C309.114 154.161 306.135 151.556 302.585 150.578C284.344 145.55 262.659 177.161 255.264 189.51C251.94 195.068 228.025 243.348 230.268 245.526C230.276 245.534 230.278 245.541 230.278 245.552V245.552Z" fill="#F0DBBE"/>
</g>
<defs>
<clipPath id="clip0_110_6">
<rect width="512" height="512" fill="white"/>
</clipPath>
</defs>
</svg>
