<svg width="114" height="32" viewBox="0 0 114 32" fill="none" xmlns="http://www.w3.org/2000/svg">
<path d="M23.7481 24.0185C23.9388 23.7458 24.2509 21.8441 24.4139 21.2987C25.7559 16.8739 30.7146 6.48155 36.8385 9.48433C39.8831 10.9788 39.2277 14.9031 39.1167 17.5677C39.1098 17.7506 38.9641 17.761 39.2623 17.7092C39.7443 17.6229 41.1973 16.546 41.4574 16.1491C41.7695 15.6694 42.3728 13.4777 42.2168 12.9703C42.085 12.5458 41.4643 12.5147 41.9082 11.7796C42.5011 10.8028 45.6567 8.69739 46.7629 9.4084C47.7407 10.0366 46.9397 13.1118 46.6831 14.1128H46.9571C48.0459 12.1213 50.8096 9.05635 53.2682 9.13573C55.2655 9.20131 55.4563 11.7036 55.7684 13.1463C57.1311 11.2101 59.0973 8.92864 61.7431 9.13573C65.0512 9.39459 63.9589 14.099 63.3694 16.1526C62.7799 18.2062 60.6785 22.4826 60.8346 24.267C60.9559 25.6407 62.2633 24.7571 62.9152 24.229C64.0179 19.2347 66.5493 12.5527 71.2895 9.94683C73.2626 8.86307 75.9709 8.44889 76.5188 11.2135C77.0805 10.9892 77.4342 10.4853 78.0029 10.1367C79.4559 9.24618 81.4671 8.72501 81.3804 11.1376C81.2868 13.6675 78.9635 18.4029 78.1832 21.0882C77.9682 21.8268 77.0493 24.4396 78.1486 24.7295C80.8429 24.4189 80.7978 21.3539 81.5156 19.2934C82.6704 15.9766 85.1497 11.783 88.2741 9.9986C89.8276 9.11502 91.7487 8.4834 92.9554 10.2575C93.2051 10.6268 93.2294 11.1134 93.5865 11.355C93.916 9.12193 95.9341 5.3115 95.5249 3.14397C95.3828 2.3881 94.3806 2.2604 95.4417 1.18354C96.704 -0.0969579 100.456 -0.680257 101.344 1.21805C102.003 2.62625 101.479 4.22429 101.084 5.62558C99.5786 10.9857 96.9848 16.3044 95.6012 21.7129C95.3966 22.5067 94.5471 25.0988 95.8786 25.1782C96.4577 25.2127 97.6714 24.405 97.9488 23.9115C98.3303 23.2281 98.5661 20.9812 98.8574 19.9837C99.9427 16.2768 102.745 11.7865 106.212 9.90196C110.006 7.84143 114.302 8.79059 113.983 13.7711C113.664 18.7515 108.511 23.3662 103.299 22.9589C103.303 24.9711 105.311 25.796 107.079 25.5475C108.397 25.3611 109.947 24.1669 110.932 23.3075C111.476 22.8346 112.444 21.5852 112.933 21.2953C113.952 20.6947 113.775 22.3859 113.692 23.0176C113.269 26.1826 108.206 30.7903 105.21 31.7015C101.781 32.7438 98.8643 30.987 98.1604 27.5183C96.7525 29.3993 93.8917 32.5298 91.2493 31.843C89.6716 31.4322 88.9433 28.8091 89.141 27.3802C88.3365 28.4743 87.7609 29.6409 86.7171 30.559C83.513 33.3858 80.7077 31.4771 80.3991 27.6563C79.1334 29.1232 77.6943 30.8628 75.8183 31.591C72.4131 32.9129 71.6987 29.1819 72.3506 26.6899C71.5427 27.5873 71.0954 28.709 70.2735 29.6616C67.1908 33.2443 63.5498 32.5988 62.9152 27.7944C61.5281 29.8963 58.3795 33.3927 55.6331 31.3839C53.5421 29.8549 54.357 26.6002 54.9396 24.4775C55.5221 22.3549 57.0202 19.4315 57.3323 17.471C57.4016 17.0293 57.4918 16.3976 57.0895 16.1215C56.2642 15.7108 55.4008 16.9568 55.0783 17.578C53.8715 19.9043 52.3146 25.0229 51.8534 27.6287C51.6661 28.6883 51.8256 30.6729 50.9726 31.308C49.3324 32.5264 46.1005 32.0017 45.8474 29.6582C45.4417 25.9375 48.5591 20.7016 49.426 17.05C49.5717 15.8834 48.7394 15.8212 47.9245 16.3942C45.9202 17.7989 43.9783 25.796 43.5345 28.3225C43.2987 29.6616 43.7079 31.1596 42.1821 31.6704C40.8991 32.1018 38.5862 32.0224 37.7435 30.8248C37.1193 29.9378 37.2372 29.1853 37.4557 28.2086C38.0348 25.6027 39.3421 23.0797 39.9524 20.4738L38.1562 21.4506C37.4765 23.5698 36.6755 25.5613 35.3578 27.3664C32.2404 31.6428 26.2899 34.5558 23.8556 27.9325C22.5552 30.1966 18.9835 33.2684 16.303 31.4461C14.5103 30.2277 14.812 27.7081 14.8362 25.8581C12.447 29.8446 4.72803 35.0563 1.19103 29.634C-2.78983 23.5318 3.9166 10.5577 10.8554 9.04944C13.4908 8.4765 16.2718 9.43946 16.5701 12.3939C17.1422 18.0578 11.3339 23.4179 5.74752 22.9589C5.6747 24.0012 6.08388 24.7606 7.04095 25.1954C9.5654 26.3448 12.076 24.6225 13.8653 22.9589C14.5172 22.3514 15.0894 21.064 16.1401 21.1469L21.1994 5.6739C21.2583 5.08715 21.5115 4.41067 21.4386 3.82392C21.3589 3.18884 20.6272 3.0853 20.9774 2.27766C21.4421 1.21115 23.7238 0.158451 24.8439 0.048004C27.8156 -0.238468 28.3393 1.09035 27.6735 3.69276C26.3384 8.90793 23.7932 14.4096 22.2223 19.6765C21.9102 20.7258 21.0433 23.0521 21.4178 24.0047C21.8062 24.9953 23.2869 24.6812 23.7446 24.0219L23.7481 24.0185ZM73.8487 13.4501C71.9415 13.671 70.0724 17.7023 69.476 19.3279C68.9766 20.6844 68.2866 22.8415 69.1327 24.1565C69.5557 24.8123 69.9857 24.8123 70.6238 24.4741C72.9055 23.2626 75.423 16.9084 75.1317 14.4545C75.0485 13.7504 74.5665 13.3638 73.8487 13.4466V13.4501ZM86.5507 24.5707C87.376 25.2541 88.6486 23.8735 89.1237 23.2764C90.4691 21.5921 92.7751 16.125 92.1717 14.0748C92.0538 13.6779 91.4539 13.3983 91.0586 13.4501C88.9433 13.7296 86.9529 18.22 86.4432 20.0562C86.1241 21.1952 85.5 23.7009 86.5507 24.5707ZM6.58322 19.7766C8.69849 19.7835 11.7049 17.5159 11.9824 15.414C12.0586 14.8514 12.0794 14.1128 11.6564 13.6882C10.4046 12.8046 8.75397 15.2034 8.22342 16.0904C8.00496 16.4563 6.43065 19.6386 6.58322 19.7732V19.7766ZM109.43 13.9609C108.907 12.4008 106.375 15.1862 105.727 16.3217C105.099 17.4227 104.648 18.6238 104.135 19.7766C106.868 19.611 110.131 16.0421 109.434 13.9609H109.43ZM33.461 14.1438C32.9304 14.3026 32.4345 15.4588 32.3895 15.98C32.2612 17.4779 33.4575 18.3926 34.8238 18.6514C35.5589 17.8611 35.0249 14.2922 33.9811 14.1128C33.8112 14.0851 33.6239 14.092 33.461 14.1404V14.1438ZM30.3817 19.504C29.5841 20.7603 28.2976 25.5199 30.7943 25.5578C32.5698 25.582 33.4818 23.1832 34.1926 21.92C33.5026 21.599 32.8264 21.6163 32.1225 21.2228C31.4185 20.8293 30.8533 20.1252 30.3782 19.5074L30.3817 19.504Z" fill="#661126"/>
</svg>
