<svg width="100" height="100" viewBox="0 0 100 100" fill="none" xmlns="http://www.w3.org/2000/svg">
<rect width="100" height="100" fill="#F0DBBE"/>
<path d="M49.9998 53.2C51.7671 53.2 53.1998 51.7673 53.1998 50C53.1998 48.2327 51.7671 46.8 49.9998 46.8C48.2325 46.8 46.7998 48.2327 46.7998 50C46.7998 51.7673 48.2325 53.2 49.9998 53.2Z" fill="#F7EDDE"/>
<path d="M47 40L45.17 42H42C40.9 42 40 42.9 40 44V56C40 57.1 40.9 58 42 58H58C59.1 58 60 57.1 60 56V44C60 42.9 59.1 42 58 42H54.83L53 40H47ZM50 55C47.24 55 45 52.76 45 50C45 47.24 47.24 45 50 45C52.76 45 55 47.24 55 50C55 52.76 52.76 55 50 55Z" fill="#F7EDDE"/>
</svg>
