<svg width="512" height="364" viewBox="0 0 512 364" fill="none" xmlns="http://www.w3.org/2000/svg">
<rect width="512" height="364" fill="#F0DBBE"/>
<path d="M256 169.533C260.713 169.533 264.533 165.713 264.533 161C264.533 156.287 260.713 152.467 256 152.467C251.287 152.467 247.467 156.287 247.467 161C247.467 165.713 251.287 169.533 256 169.533Z" fill="#F7EDDE" fill-opacity="0.6"/>
<path d="M248 134.333L243.12 139.667H234.666C231.733 139.667 229.333 142.067 229.333 145V177C229.333 179.933 231.733 182.333 234.666 182.333H277.333C280.266 182.333 282.666 179.933 282.666 177V145C282.666 142.067 280.266 139.667 277.333 139.667H268.88L264 134.333H248ZM256 174.333C248.64 174.333 242.666 168.36 242.666 161C242.666 153.64 248.64 147.667 256 147.667C263.36 147.667 269.333 153.64 269.333 161C269.333 168.36 263.36 174.333 256 174.333Z" fill="#F7EDDE" fill-opacity="0.6"/>
<path d="M186.016 204.64L189.44 213.808L192.848 204.64H194.752L190.288 216H188.592L184.112 204.64H186.016ZM195.915 216V207.632H197.675V216H195.915ZM195.915 206.256V204.32H197.675V206.256H195.915ZM202.766 216.16C202.062 216.16 201.396 216.048 200.766 215.824C200.137 215.589 199.598 215.243 199.15 214.784L199.806 213.6C200.286 214.027 200.766 214.336 201.246 214.528C201.737 214.72 202.222 214.816 202.702 214.816C203.193 214.816 203.593 214.725 203.902 214.544C204.212 214.352 204.366 214.075 204.366 213.712C204.366 213.445 204.286 213.248 204.126 213.12C203.966 212.992 203.732 212.88 203.422 212.784C203.124 212.688 202.761 212.581 202.334 212.464C201.737 212.283 201.236 212.096 200.83 211.904C200.425 211.701 200.121 211.456 199.918 211.168C199.716 210.88 199.614 210.512 199.614 210.064C199.614 209.52 199.753 209.056 200.03 208.672C200.308 208.288 200.692 207.995 201.182 207.792C201.684 207.589 202.26 207.488 202.91 207.488C203.518 207.488 204.078 207.584 204.59 207.776C205.113 207.957 205.572 208.245 205.966 208.64L205.214 209.808C204.841 209.467 204.457 209.216 204.062 209.056C203.678 208.896 203.262 208.816 202.814 208.816C202.558 208.816 202.313 208.848 202.078 208.912C201.844 208.965 201.646 209.072 201.486 209.232C201.337 209.381 201.262 209.595 201.262 209.872C201.262 210.096 201.326 210.277 201.454 210.416C201.582 210.555 201.774 210.672 202.03 210.768C202.286 210.864 202.601 210.971 202.974 211.088C203.625 211.28 204.18 211.472 204.638 211.664C205.097 211.845 205.449 212.085 205.694 212.384C205.95 212.672 206.078 213.072 206.078 213.584C206.078 214.395 205.774 215.029 205.166 215.488C204.569 215.936 203.769 216.16 202.766 216.16ZM207.57 212.752V207.632H209.33V212.4C209.33 213.147 209.463 213.712 209.73 214.096C210.007 214.469 210.407 214.656 210.93 214.656C211.26 214.656 211.58 214.587 211.89 214.448C212.21 214.309 212.498 214.107 212.754 213.84C213.02 213.563 213.234 213.232 213.394 212.848V207.632H215.154V214.016C215.154 214.219 215.191 214.363 215.266 214.448C215.34 214.533 215.463 214.581 215.634 214.592V216C215.452 216.032 215.303 216.053 215.186 216.064C215.068 216.075 214.956 216.08 214.85 216.08C214.53 216.08 214.263 215.995 214.05 215.824C213.836 215.643 213.714 215.413 213.682 215.136L213.65 214.304C213.276 214.912 212.791 215.376 212.194 215.696C211.596 216.005 210.94 216.16 210.226 216.16C209.351 216.16 208.69 215.872 208.242 215.296C207.794 214.72 207.57 213.872 207.57 212.752ZM221.192 216.16C220.541 216.16 219.949 216.048 219.416 215.824C218.893 215.589 218.44 215.275 218.056 214.88C217.672 214.475 217.373 214.016 217.16 213.504C216.957 212.981 216.856 212.427 216.856 211.84C216.856 211.051 217.037 210.331 217.4 209.68C217.762 209.019 218.269 208.491 218.92 208.096C219.57 207.691 220.333 207.488 221.208 207.488C222.082 207.488 222.834 207.691 223.464 208.096C224.104 208.491 224.6 209.013 224.952 209.664C225.304 210.315 225.48 211.013 225.48 211.76C225.48 211.888 225.474 212.011 225.464 212.128C225.453 212.235 225.442 212.325 225.432 212.4H218.728C218.76 212.891 218.893 213.323 219.128 213.696C219.373 214.059 219.682 214.347 220.056 214.56C220.429 214.763 220.829 214.864 221.256 214.864C221.725 214.864 222.168 214.747 222.584 214.512C223.01 214.277 223.298 213.968 223.448 213.584L224.952 214.016C224.77 214.421 224.493 214.789 224.12 215.12C223.757 215.44 223.325 215.696 222.824 215.888C222.322 216.069 221.778 216.16 221.192 216.16ZM218.68 211.232H223.736C223.704 210.752 223.565 210.331 223.32 209.968C223.085 209.595 222.781 209.307 222.408 209.104C222.045 208.891 221.64 208.784 221.192 208.784C220.754 208.784 220.349 208.891 219.976 209.104C219.613 209.307 219.314 209.595 219.08 209.968C218.845 210.331 218.712 210.752 218.68 211.232ZM226.931 204.32H228.691V213.584C228.691 214.011 228.755 214.283 228.883 214.4C229.011 214.517 229.171 214.576 229.363 214.576C229.577 214.576 229.774 214.555 229.955 214.512C230.147 214.469 230.313 214.416 230.451 214.352L230.707 215.744C230.451 215.851 230.147 215.941 229.795 216.016C229.443 216.091 229.129 216.128 228.851 216.128C228.254 216.128 227.785 215.963 227.443 215.632C227.102 215.291 226.931 214.821 226.931 214.224V204.32ZM235.228 216V207.632H236.988V216H235.228ZM235.228 206.256V204.32H236.988V206.256H235.228ZM246.607 216H244.847V211.312C244.847 210.533 244.719 209.963 244.463 209.6C244.218 209.237 243.85 209.056 243.359 209.056C243.018 209.056 242.676 209.141 242.335 209.312C242.004 209.483 241.706 209.717 241.439 210.016C241.172 210.304 240.98 210.64 240.863 211.024V216H239.103V207.632H240.703V209.312C240.916 208.939 241.194 208.619 241.535 208.352C241.887 208.075 242.282 207.861 242.719 207.712C243.156 207.563 243.62 207.488 244.111 207.488C244.612 207.488 245.023 207.579 245.343 207.76C245.674 207.941 245.93 208.192 246.111 208.512C246.303 208.821 246.431 209.184 246.495 209.6C246.57 210.005 246.607 210.437 246.607 210.896V216ZM248.122 211.824C248.122 211.024 248.282 210.299 248.602 209.648C248.932 208.987 249.38 208.464 249.946 208.08C250.511 207.685 251.162 207.488 251.898 207.488C252.538 207.488 253.114 207.653 253.626 207.984C254.148 208.315 254.554 208.725 254.842 209.216V204.32H256.602V214.016C256.602 214.219 256.639 214.363 256.714 214.448C256.788 214.533 256.911 214.581 257.082 214.592V216C256.751 216.053 256.495 216.08 256.314 216.08C255.983 216.08 255.7 215.984 255.466 215.792C255.242 215.6 255.124 215.371 255.114 215.104L255.098 214.48C254.778 215.013 254.346 215.429 253.802 215.728C253.258 216.016 252.692 216.16 252.106 216.16C251.53 216.16 250.996 216.048 250.506 215.824C250.026 215.6 249.604 215.285 249.242 214.88C248.89 214.475 248.612 214.011 248.41 213.488C248.218 212.965 248.122 212.411 248.122 211.824ZM254.842 212.992V210.8C254.724 210.459 254.532 210.155 254.266 209.888C254.01 209.611 253.716 209.392 253.386 209.232C253.066 209.072 252.746 208.992 252.426 208.992C252.052 208.992 251.711 209.072 251.402 209.232C251.103 209.392 250.842 209.605 250.618 209.872C250.404 210.139 250.239 210.443 250.122 210.784C250.004 211.125 249.946 211.483 249.946 211.856C249.946 212.24 250.01 212.603 250.138 212.944C250.266 213.275 250.447 213.573 250.682 213.84C250.927 214.096 251.204 214.299 251.514 214.448C251.834 214.587 252.18 214.656 252.554 214.656C252.788 214.656 253.023 214.613 253.258 214.528C253.503 214.443 253.732 214.325 253.946 214.176C254.17 214.027 254.356 213.851 254.506 213.648C254.666 213.445 254.778 213.227 254.842 212.992ZM258.837 216V207.632H260.597V216H258.837ZM258.837 206.256V204.32H260.597V206.256H258.837ZM265.688 216.16C264.984 216.16 264.318 216.048 263.688 215.824C263.059 215.589 262.52 215.243 262.072 214.784L262.728 213.6C263.208 214.027 263.688 214.336 264.168 214.528C264.659 214.72 265.144 214.816 265.624 214.816C266.115 214.816 266.515 214.725 266.824 214.544C267.134 214.352 267.288 214.075 267.288 213.712C267.288 213.445 267.208 213.248 267.048 213.12C266.888 212.992 266.654 212.88 266.344 212.784C266.046 212.688 265.683 212.581 265.256 212.464C264.659 212.283 264.158 212.096 263.752 211.904C263.347 211.701 263.043 211.456 262.84 211.168C262.638 210.88 262.536 210.512 262.536 210.064C262.536 209.52 262.675 209.056 262.952 208.672C263.23 208.288 263.614 207.995 264.104 207.792C264.606 207.589 265.182 207.488 265.832 207.488C266.44 207.488 267 207.584 267.512 207.776C268.035 207.957 268.494 208.245 268.888 208.64L268.136 209.808C267.763 209.467 267.379 209.216 266.984 209.056C266.6 208.896 266.184 208.816 265.736 208.816C265.48 208.816 265.235 208.848 265 208.912C264.766 208.965 264.568 209.072 264.408 209.232C264.259 209.381 264.184 209.595 264.184 209.872C264.184 210.096 264.248 210.277 264.376 210.416C264.504 210.555 264.696 210.672 264.952 210.768C265.208 210.864 265.523 210.971 265.896 211.088C266.547 211.28 267.102 211.472 267.56 211.664C268.019 211.845 268.371 212.085 268.616 212.384C268.872 212.672 269 213.072 269 213.584C269 214.395 268.696 215.029 268.088 215.488C267.491 215.936 266.691 216.16 265.688 216.16ZM275.324 216.16C274.652 216.16 274.06 216 273.548 215.68C273.036 215.36 272.63 214.944 272.332 214.432V219.408H270.572V207.632H272.124V209.136C272.444 208.635 272.86 208.235 273.372 207.936C273.884 207.637 274.454 207.488 275.084 207.488C275.66 207.488 276.188 207.605 276.668 207.84C277.148 208.064 277.564 208.379 277.916 208.784C278.268 209.189 278.54 209.653 278.732 210.176C278.934 210.688 279.036 211.232 279.036 211.808C279.036 212.608 278.876 213.339 278.556 214C278.246 214.661 277.809 215.189 277.244 215.584C276.689 215.968 276.049 216.16 275.324 216.16ZM274.748 214.656C275.121 214.656 275.457 214.576 275.756 214.416C276.065 214.256 276.326 214.043 276.54 213.776C276.764 213.509 276.934 213.205 277.052 212.864C277.169 212.523 277.228 212.171 277.228 211.808C277.228 211.424 277.164 211.061 277.036 210.72C276.908 210.379 276.721 210.08 276.476 209.824C276.241 209.568 275.964 209.365 275.644 209.216C275.334 209.067 274.993 208.992 274.62 208.992C274.396 208.992 274.161 209.035 273.916 209.12C273.67 209.205 273.441 209.323 273.228 209.472C273.014 209.621 272.828 209.797 272.668 210C272.508 210.203 272.396 210.416 272.332 210.64V212.832C272.481 213.173 272.678 213.483 272.924 213.76C273.169 214.027 273.452 214.245 273.772 214.416C274.092 214.576 274.417 214.656 274.748 214.656ZM284.379 216.16C283.717 216.16 283.125 216.048 282.603 215.824C282.08 215.589 281.627 215.269 281.243 214.864C280.869 214.459 280.581 214 280.379 213.488C280.176 212.965 280.075 212.411 280.075 211.824C280.075 211.237 280.176 210.683 280.379 210.16C280.581 209.637 280.869 209.179 281.243 208.784C281.627 208.379 282.08 208.064 282.603 207.84C283.136 207.605 283.728 207.488 284.379 207.488C285.029 207.488 285.616 207.605 286.139 207.84C286.672 208.064 287.125 208.379 287.499 208.784C287.883 209.179 288.176 209.637 288.378 210.16C288.581 210.683 288.683 211.237 288.683 211.824C288.683 212.411 288.581 212.965 288.378 213.488C288.176 214 287.883 214.459 287.499 214.864C287.125 215.269 286.672 215.589 286.139 215.824C285.616 216.048 285.029 216.16 284.379 216.16ZM281.883 211.84C281.883 212.373 281.995 212.853 282.219 213.28C282.443 213.707 282.741 214.043 283.115 214.288C283.488 214.533 283.909 214.656 284.379 214.656C284.837 214.656 285.253 214.533 285.627 214.288C286.011 214.032 286.315 213.691 286.539 213.264C286.763 212.827 286.875 212.347 286.875 211.824C286.875 211.291 286.763 210.811 286.539 210.384C286.315 209.957 286.011 209.621 285.627 209.376C285.253 209.12 284.837 208.992 284.379 208.992C283.909 208.992 283.488 209.12 283.115 209.376C282.741 209.632 282.443 209.973 282.219 210.4C281.995 210.816 281.883 211.296 281.883 211.84ZM297.748 216H295.988V211.312C295.988 210.533 295.86 209.963 295.604 209.6C295.358 209.237 294.99 209.056 294.5 209.056C294.158 209.056 293.817 209.141 293.476 209.312C293.145 209.483 292.846 209.717 292.58 210.016C292.313 210.304 292.121 210.64 292.004 211.024V216H290.243V207.632H291.844V209.312C292.057 208.939 292.334 208.619 292.676 208.352C293.028 208.075 293.422 207.861 293.86 207.712C294.297 207.563 294.761 207.488 295.252 207.488C295.753 207.488 296.164 207.579 296.484 207.76C296.814 207.941 297.07 208.192 297.252 208.512C297.444 208.821 297.572 209.184 297.635 209.6C297.71 210.005 297.748 210.437 297.748 210.896V216ZM299.79 216V207.632H301.55V216H299.79ZM299.79 206.256V204.32H301.55V206.256H299.79ZM308.177 216.16C307.537 216.16 306.956 216.011 306.433 215.712C305.921 215.403 305.516 214.992 305.217 214.48V216H303.665V204.32H305.425V209.216C305.756 208.683 306.167 208.261 306.657 207.952C307.159 207.643 307.745 207.488 308.417 207.488C308.972 207.488 309.479 207.605 309.937 207.84C310.396 208.075 310.785 208.395 311.105 208.8C311.436 209.205 311.687 209.669 311.857 210.192C312.039 210.715 312.129 211.269 312.129 211.856C312.129 212.443 312.028 212.997 311.825 213.52C311.633 214.043 311.356 214.501 310.993 214.896C310.631 215.291 310.209 215.6 309.729 215.824C309.26 216.048 308.743 216.16 308.177 216.16ZM307.713 214.656C308.097 214.656 308.449 214.581 308.769 214.432C309.089 214.272 309.367 214.064 309.601 213.808C309.836 213.552 310.012 213.253 310.129 212.912C310.257 212.571 310.321 212.219 310.321 211.856C310.321 211.355 310.215 210.885 310.001 210.448C309.799 210.011 309.511 209.659 309.137 209.392C308.764 209.125 308.332 208.992 307.841 208.992C307.489 208.992 307.159 209.077 306.849 209.248C306.54 209.408 306.263 209.627 306.017 209.904C305.783 210.171 305.585 210.469 305.425 210.8V213.008C305.489 213.253 305.601 213.477 305.761 213.68C305.921 213.872 306.108 214.043 306.321 214.192C306.535 214.331 306.764 214.443 307.009 214.528C307.255 214.613 307.489 214.656 307.713 214.656ZM313.728 204.32H315.488V213.584C315.488 214.011 315.552 214.283 315.68 214.4C315.808 214.517 315.968 214.576 316.16 214.576C316.374 214.576 316.571 214.555 316.752 214.512C316.944 214.469 317.11 214.416 317.248 214.352L317.504 215.744C317.248 215.851 316.944 215.941 316.592 216.016C316.24 216.091 315.926 216.128 315.648 216.128C315.051 216.128 314.582 215.963 314.24 215.632C313.899 215.291 313.728 214.821 313.728 214.224V204.32ZM322.317 216.16C321.666 216.16 321.074 216.048 320.541 215.824C320.018 215.589 319.565 215.275 319.181 214.88C318.797 214.475 318.498 214.016 318.285 213.504C318.082 212.981 317.981 212.427 317.981 211.84C317.981 211.051 318.162 210.331 318.525 209.68C318.887 209.019 319.394 208.491 320.045 208.096C320.695 207.691 321.458 207.488 322.333 207.488C323.207 207.488 323.959 207.691 324.589 208.096C325.229 208.491 325.725 209.013 326.077 209.664C326.429 210.315 326.605 211.013 326.605 211.76C326.605 211.888 326.599 212.011 326.589 212.128C326.578 212.235 326.567 212.325 326.557 212.4H319.853C319.885 212.891 320.018 213.323 320.253 213.696C320.498 214.059 320.807 214.347 321.181 214.56C321.554 214.763 321.954 214.864 322.381 214.864C322.85 214.864 323.293 214.747 323.709 214.512C324.135 214.277 324.423 213.968 324.573 213.584L326.077 214.016C325.895 214.421 325.618 214.789 325.245 215.12C324.882 215.44 324.45 215.696 323.949 215.888C323.447 216.069 322.903 216.16 322.317 216.16ZM319.805 211.232H324.861C324.829 210.752 324.69 210.331 324.445 209.968C324.21 209.595 323.906 209.307 323.533 209.104C323.17 208.891 322.765 208.784 322.317 208.784C321.879 208.784 321.474 208.891 321.101 209.104C320.738 209.307 320.439 209.595 320.205 209.968C319.97 210.331 319.837 210.752 319.805 211.232Z" fill="#990026"/>
</svg>
