<svg width="100" height="100" viewBox="0 0 100 100" fill="none" xmlns="http://www.w3.org/2000/svg">
<rect width="100" height="100" fill="#F0DBBE"/>
<rect width="20" height="20" transform="translate(40 40)" fill="#F0DBBE" fill-opacity="0.6"/>
<path d="M49.9997 52.6666C51.4724 52.6666 52.6663 51.4727 52.6663 50C52.6663 48.5272 51.4724 47.3333 49.9997 47.3333C48.5269 47.3333 47.333 48.5272 47.333 50C47.333 51.4727 48.5269 52.6666 49.9997 52.6666Z" fill="#F7EDDE" fill-opacity="0.7"/>
<path d="M47.5003 41.6667L45.9753 43.3334H43.3337C42.417 43.3334 41.667 44.0834 41.667 45V55C41.667 55.9167 42.417 56.6667 43.3337 56.6667H56.667C57.5837 56.6667 58.3337 55.9167 58.3337 55V45C58.3337 44.0834 57.5837 43.3334 56.667 43.3334H54.0253L52.5003 41.6667H47.5003ZM50.0003 54.1667C47.7003 54.1667 45.8337 52.3 45.8337 50C45.8337 47.7 47.7003 45.8334 50.0003 45.8334C52.3003 45.8334 54.167 47.7 54.167 50C54.167 52.3 52.3003 54.1667 50.0003 54.1667Z" fill="#F7EDDE" fill-opacity="0.7"/>
</svg>
