<svg width="24" height="24" viewBox="0 0 24 24" fill="none" xmlns="http://www.w3.org/2000/svg">
<path d="M21 7C21 4.79086 19.2091 3 17 3H7C4.79086 3 3 4.79086 3 7V17C3 19.2091 4.79086 21 7 21H17C19.2091 21 21 19.2091 21 17V7ZM9.74023 7.51855C10.6736 7.03423 11.7362 6.85656 12.7764 7.01074L12.9746 7.04395C13.9597 7.23069 14.8679 7.70972 15.5791 8.4209C16.3377 9.17945 16.8319 10.1625 16.9893 11.2236L17.0146 11.4189C17.1204 12.3961 16.9355 13.3847 16.4814 14.2598C15.9971 15.1932 15.2304 15.95 14.291 16.4229C13.3517 16.8956 12.2873 17.0606 11.249 16.8936C10.2107 16.7265 9.25146 16.2358 8.50781 15.4922C7.76416 14.7485 7.27353 13.7893 7.10645 12.751C6.93941 11.7127 7.1044 10.6483 7.57715 9.70898C8.04996 8.76962 8.80679 8.00293 9.74023 7.51855ZM12.4834 8.98926C11.8592 8.8967 11.2212 9.00332 10.6611 9.29395C10.1012 9.58458 9.64692 10.0449 9.36328 10.6084C9.07976 11.1719 8.98083 11.8108 9.08105 12.4336C9.18133 13.0565 9.47573 13.632 9.92188 14.0781C10.368 14.5243 10.9435 14.8187 11.5664 14.9189C12.1892 15.0192 12.8281 14.9202 13.3916 14.6367C13.9551 14.3531 14.4154 13.8988 14.7061 13.3389C14.9604 12.8487 15.0738 12.2989 15.0361 11.751L15.0107 11.5166C14.9163 10.8799 14.6201 10.2901 14.165 9.83496C13.7668 9.43674 13.2653 9.16045 12.7197 9.03418L12.4834 8.98926ZM17.5098 5.5L17.6123 5.50488C18.1165 5.55611 18.5098 5.98224 18.5098 6.5C18.5098 7.01776 18.1165 7.44389 17.6123 7.49512L17.5098 7.5H17.5C16.9477 7.5 16.5 7.05228 16.5 6.5C16.5 5.94772 16.9477 5.5 17.5 5.5H17.5098ZM23 17C23 20.3137 20.3137 23 17 23H7C3.68629 23 1 20.3137 1 17V7C1 3.68629 3.68629 1 7 1H17C20.3137 1 23 3.68629 23 7V17Z" fill="black"/>
</svg>
