<svg width="20" height="20" viewBox="0 0 20 20" fill="none" xmlns="http://www.w3.org/2000/svg">
<path d="M17.3335 7.65564L11.3774 11.4496C11.3661 11.4568 11.3549 11.4643 11.3433 11.4711C10.9365 11.7074 10.4739 11.8314 10.0034 11.8314C9.53319 11.8314 9.07121 11.7072 8.66455 11.4711C8.65287 11.4643 8.64079 11.4568 8.62939 11.4496L2.6665 7.65466V15.0004C2.66668 15.3684 2.96541 15.6664 3.3335 15.6664H16.6665C17.0346 15.6664 17.3333 15.3684 17.3335 15.0004V7.65564ZM3.3335 4.33337C2.96531 4.33337 2.6665 4.63218 2.6665 5.00037V5.28357L9.68115 9.74744C9.77983 9.80203 9.8905 9.83139 10.0034 9.83142C10.116 9.83142 10.2262 9.8017 10.3247 9.74744L17.3335 5.28357V5.00037C17.3335 4.63218 17.0347 4.33337 16.6665 4.33337H3.3335ZM19.3335 15.0004C19.3333 16.473 18.1392 17.6664 16.6665 17.6664H3.3335C1.86085 17.6664 0.66668 16.473 0.666504 15.0004V5.00037C0.666504 3.52761 1.86074 2.33337 3.3335 2.33337H16.6665C18.1393 2.33337 19.3335 3.52761 19.3335 5.00037V15.0004Z" fill="#F0DBBE"/>
</svg>
